<svg xmlns="http://www.w3.org/2000/svg" viewBox="0 0 100 100" width="100" height="100">
  <defs>
    <linearGradient id="faceGradient" x1="0%" y1="0%" x2="100%" y2="100%">
      <stop offset="0%" style="stop-color:#3b82f6;stop-opacity:1" />
      <stop offset="100%" style="stop-color:#1d4ed8;stop-opacity:1" />
    </linearGradient>
  </defs>
  
  <!-- Face outline -->
  <ellipse cx="50" cy="50" rx="35" ry="42" fill="url(#faceGradient)" stroke="#1e40af" stroke-width="2"/>
  
  <!-- Eyes -->
  <circle cx="40" cy="40" r="4" fill="white"/>
  <circle cx="60" cy="40" r="4" fill="white"/>
  <circle cx="40" cy="40" r="2" fill="#1e40af"/>
  <circle cx="60" cy="40" r="2" fill="#1e40af"/>
  
  <!-- Nose -->
  <path d="M50 48 L52 55 L50 56 L48 55 Z" fill="#1e40af" opacity="0.6"/>
  
  <!-- Mouth -->
  <path d="M42 65 Q50 72 58 65" stroke="white" stroke-width="2" fill="none" stroke-linecap="round"/>
  
  <!-- Facial landmarks (detection points) -->
  <circle cx="20" cy="35" r="1" fill="#fbbf24" opacity="0.8"/>
  <circle cx="80" cy="35" r="1" fill="#fbbf24" opacity="0.8"/>
  <circle cx="30" cy="25" r="1" fill="#fbbf24" opacity="0.8"/>
  <circle cx="70" cy="25" r="1" fill="#fbbf24" opacity="0.8"/>
  <circle cx="50" cy="25" r="1" fill="#fbbf24" opacity="0.8"/>
  <circle cx="35" cy="75" r="1" fill="#fbbf24" opacity="0.8"/>
  <circle cx="65" cy="75" r="1" fill="#fbbf24" opacity="0.8"/>
  <circle cx="50" cy="80" r="1" fill="#fbbf24" opacity="0.8"/>
</svg>